<svg width="60" height="60" viewBox="0 0 92 92" fill="white" xmlns="http://www.w3.org/2000/svg">
<path d="M31.4602 15.3333C33.2235 15.3333 34.9408 15.8738 36.3822 16.8743L36.9802 17.3343L46.0843 24.9166H75.7083C77.7891 24.916 79.8 25.6675 81.3703 27.0328C82.9405 28.3981 83.9643 30.285 84.2528 32.3456L84.3142 32.9513L84.3333 33.5416V50.9833C82.5606 50.0758 80.5663 49.6916 78.5833 49.8755V33.5416C78.5833 32.8469 78.3317 32.1757 77.8751 31.6521C77.4184 31.1285 76.7876 30.788 76.0993 30.6935L75.7083 30.6666H46.0805L36.9802 38.2528C35.628 39.378 33.964 40.0629 32.2115 40.2155L31.4602 40.25L13.4167 40.2461V68.0416C13.4167 69.4983 14.4977 70.702 15.9007 70.8898L16.2917 70.9166H43.4393C42.5289 72.6921 42.0931 74.673 42.1743 76.6666H16.2917C14.1062 76.6669 12.0021 75.8375 10.4046 74.3461C8.80714 72.8546 7.83542 70.8123 7.68584 68.632L7.66667 68.0416V23.9583C7.6664 21.7728 8.4958 19.6687 9.98725 18.0713C11.4787 16.4738 13.521 15.5021 15.7013 15.3525L16.2917 15.3333H31.4602ZM31.4602 21.0833H16.2917C15.5969 21.0833 14.9257 21.3349 14.4021 21.7916C13.8785 22.2482 13.538 22.879 13.4435 23.5673L13.4167 23.9583V34.4961L31.4602 34.5C31.9954 34.4993 32.5198 34.3493 32.9743 34.0668L33.3002 33.8368L40.549 27.7878L33.304 21.7503C32.8916 21.4061 32.3909 21.1843 31.8588 21.1101L31.4602 21.0833ZM60.375 65.1666C62.6625 65.1666 64.8563 64.2579 66.4738 62.6404C68.0913 61.0229 69 58.8291 69 56.5416C69 54.2542 68.0913 52.0603 66.4738 50.4428C64.8563 48.8253 62.6625 47.9166 60.375 47.9166C58.0875 47.9166 55.8937 48.8253 54.2762 50.4428C52.6587 52.0603 51.75 54.2542 51.75 56.5416C51.75 58.8291 52.6587 61.0229 54.2762 62.6404C55.8937 64.2579 58.0875 65.1666 60.375 65.1666ZM60.375 88.1666C70.6445 88.1666 74.75 82.1521 74.75 76.1875C74.75 72.22 71.99 69 68.5898 69H52.1602C48.76 69 46 72.22 46 76.1875C46 82.1751 50.1055 88.1666 60.375 88.1666ZM86.25 60.375C86.25 62.1541 85.5432 63.8604 84.2852 65.1185C83.0271 66.3765 81.3208 67.0833 79.5417 67.0833C77.7625 67.0833 76.0562 66.3765 74.7982 65.1185C73.5401 63.8604 72.8333 62.1541 72.8333 60.375C72.8333 58.5958 73.5401 56.8895 74.7982 55.6315C76.0562 54.3734 77.7625 53.6666 79.5417 53.6666C81.3208 53.6666 83.0271 54.3734 84.2852 55.6315C85.5432 56.8895 86.25 58.5958 86.25 60.375ZM76.3447 84.3333C77.8933 81.8033 78.5757 78.9475 78.5757 76.1875C78.5722 74.3602 78.1527 72.5577 77.349 70.9166H83.2523C85.974 70.9166 88.182 73.1706 88.182 75.9498C88.182 80.1281 84.8968 84.3333 76.682 84.3333H76.3447Z" fill="white"/>
</svg>
