<svg width="60" height="60" viewBox="0 0 92 92" fill="none" xmlns="http://www.w3.org/2000/svg">
<path d="M81.2188 46H76.1875C75.7922 46 75.4688 46.3234 75.4688 46.7188V75.4688H16.5312V16.5312H45.2812C45.6766 16.5312 46 16.2078 46 15.8125V10.7812C46 10.3859 45.6766 10.0625 45.2812 10.0625H12.9375C11.3473 10.0625 10.0625 11.3473 10.0625 12.9375V79.0625C10.0625 80.6527 11.3473 81.9375 12.9375 81.9375H79.0625C80.6527 81.9375 81.9375 80.6527 81.9375 79.0625V46.7188C81.9375 46.3234 81.6141 46 81.2188 46Z" fill="white"/>
<path d="M31.9754 48.0574L31.8047 58.7398C31.7957 59.5395 32.4426 60.1953 33.2422 60.1953H33.2781L43.8797 59.9348C44.0594 59.9258 44.2391 59.8539 44.3648 59.7281L81.7309 22.443C82.0094 22.1645 82.0094 21.7063 81.7309 21.4277L70.5633 10.2691C70.4195 10.1254 70.2398 10.0625 70.0512 10.0625C69.8625 10.0625 69.6828 10.1344 69.5391 10.2691L32.182 47.5543C32.0523 47.69 31.9785 47.8697 31.9754 48.0574ZM37.6805 50.1777L70.0512 17.8789L74.1121 21.9309L41.7234 54.2477L37.6176 54.3465L37.6805 50.1777Z" fill="white"/>
</svg>
